{
.appVersion = "939";
DisplayStrings = (
w
);
customParameters = (
{
name = glyphOrder;
value = "New Parameter";
}
);
date = "2016-06-27 01:42:32 +0000";
familyName = test_font;
fontMaster = (
{
ascender = 800;
capHeight = 700;
descender = -200;
id = "B235F14D-3E21-48B2-BBEC-7C0B00999912";
userData = {
GSCornerRadius = 15;
GSOffsetHorizontal = 0;
GSOffsetVertical = 0;
};
xHeight = 500;
},
{
ascender = 800;
capHeight = 700;
descender = -200;
id = "97059F98-3B67-4574-BA6A-CF2BFE3FA469";
weight = Bold;
weightValue = 200;
xHeight = 500;
}
);
glyphs = (
{
glyphname = a;
lastChange = "2016-07-16 13:04:28 +0000";
layers = (
{
anchors = (
{
name = ogonek;
position = "{377, 40}";
},
{
name = top;
position = "{233, 508}";
}
);
guideLines = (
{
angle = 90;
position = "{146, 431}";
},
{
angle = 90;
position = "{646, 334}";
},
{
angle = 26;
position = "{561, 0}";
},
{
angle = 102;
position = "{576, 118}";
}
);
layerId = "B235F14D-3E21-48B2-BBEC-7C0B00999912";
paths = (
{
closed = 1;
nodes = (
"222 -1 LINE",
"318 44 LINE",
"342 1 LINE",
"400 0 LINE",
"376 118 LINE",
"374 325 LINE",
"374 474 OFFCURVE",
"332 508 OFFCURVE",
"198 508 CURVE SMOOTH",
"102 508 OFFCURVE",
"40 500 OFFCURVE",
"40 366 CURVE",
"87 366 LINE",
"112 435 LINE",
"138 442 OFFCURVE",
"181 440 OFFCURVE",
"207 440 CURVE SMOOTH",
"302 440 OFFCURVE",
"304 413 OFFCURVE",
"304 317 CURVE",
"288 315 OFFCURVE",
"273 317 OFFCURVE",
"259 315 CURVE SMOOTH",
"119 297 OFFCURVE",
"30 286 OFFCURVE",
"30 132 CURVE SMOOTH",
"30 71 OFFCURVE",
"53 18 OFFCURVE",
"117 3 CURVE"
);
},
{
closed = 1;
nodes = (
"143 67 LINE SMOOTH",
"95 69 OFFCURVE",
"90 162 OFFCURVE",
"110 197 CURVE SMOOTH",
"129 230 OFFCURVE",
"161 234 OFFCURVE",
"198 242 CURVE SMOOTH",
"233 250 OFFCURVE",
"276 251 OFFCURVE",
"309 251 CURVE",
"309 104 LINE",
"205 65 LINE"
);
}
);
width = 440;
},
{
associatedMasterId = "B235F14D-3E21-48B2-BBEC-7C0B00999912";
guideLines = (
{
angle = 90;
position = "{50, 431}";
},
{
angle = 90;
position = "{550, 334}";
},
{
angle = 26;
position = "{465, 0}";
}
);
layerId = "7F9EBF47-BACF-4204-A77E-AA78AB5D5754";
name = "Regular Jun 29 16, 06:06";
paths = (
{
closed = 1;
nodes = (
"-285 700 LINE",
"-225 700 LINE",
"-220 118 LINE",
"-220 69 LINE",
"-130 51 LINE",
"-130 1 LINE",
"-246 2 LINE",
"-285 2 OFFCURVE",
"-287 31 OFFCURVE",
"-287 90 CURVE"
);
}
);
width = 600;
},
{
associatedMasterId = "B235F14D-3E21-48B2-BBEC-7C0B00999912";
guideLines = (
{
angle = 90;
position = "{50, 431}";
},
{
angle = 90;
position = "{550, 334}";
},
{
angle = 26;
position = "{465, 0}";
}
);
layerId = "72E86F59-68F2-4F93-AF06-A178521A7FC8";
name = "Regular Jun 29 16, 06:06";
paths = (
{
closed = 1;
nodes = (
"-285 700 LINE",
"-225 700 LINE",
"-220 118 LINE",
"-220 69 LINE",
"-130 51 LINE",
"-130 1 LINE",
"-246 2 LINE",
"-285 2 OFFCURVE",
"-287 31 OFFCURVE",
"-287 90 CURVE"
);
}
);
width = 600;
},
{
associatedMasterId = "B235F14D-3E21-48B2-BBEC-7C0B00999912";
guideLines = (
{
angle = 90;
position = "{50, 431}";
},
{
angle = 90;
position = "{550, 334}";
},
{
angle = 26;
position = "{465, 0}";
}
);
layerId = "6C6683BB-2E4C-4CEA-9C2F-BFC31C548699";
name = "Regular Jun 29 16, 06:06";
paths = (
{
closed = 1;
nodes = (
"-285 700 LINE",
"-225 700 LINE",
"-220 118 LINE",
"-220 69 LINE",
"-130 51 LINE",
"-130 1 LINE",
"-246 2 LINE",
"-285 2 OFFCURVE",
"-287 31 OFFCURVE",
"-287 90 CURVE"
);
}
);
width = 600;
},
{
layerId = "97059F98-3B67-4574-BA6A-CF2BFE3FA469";
width = 600;
}
);
unicode = 0061;
},
{
glyphname = b;
lastChange = "2016-07-16 13:04:39 +0000";
layers = (
{
guideLines = (
{
angle = 90;
position = "{312, 1}";
}
);
layerId = "B235F14D-3E21-48B2-BBEC-7C0B00999912";
paths = (
{
closed = 1;
nodes = (
"165 701 LINE",
"165 102 LINE",
"130 0 LINE",
"69 0 LINE",
"94 116 LINE",
"96 699 LINE"
);
},
{
closed = 1;
nodes = (
"487 85 OFFCURVE",
"397 0 OFFCURVE",
"273 0 CURVE",
"260 0 LINE",
"145 47 LINE",
"108 259 LINE",
"165 503 LINE",
"243 505 LINE",
"280 505 LINE",
"397 505 OFFCURVE",
"487 427 OFFCURVE",
"487 256 CURVE"
);
},
{
closed = 1;
nodes = (
"250 436 LINE",
"165 436 LINE",
"136 268 LINE",
"136 237 OFFCURVE",
"133 150 OFFCURVE",
"165 111 CURVE",
"264 68 LINE",
"275 66 LINE",
"349 66 OFFCURVE",
"416 120 OFFCURVE",
"416 251 CURVE",
"416 373 OFFCURVE",
"361 434 OFFCURVE",
"283 434 CURVE"
);
}
);
width = 600;
},
{
layerId = "97059F98-3B67-4574-BA6A-CF2BFE3FA469";
width = 600;
}
);
unicode = 0062;
},
{
glyphname = c;
lastChange = "2016-07-16 13:04:39 +0000";
layers = (
{
anchors = (
{
name = top;
position = "{105, 504}";
}
);
layerId = "B235F14D-3E21-48B2-BBEC-7C0B00999912";
paths = (
{
closed = 1;
nodes = (
"186 418 OFFCURVE",
"196 437 OFFCURVE",
"259 437 CURVE",
"336 437 LINE",
"423 399 LINE",
"435 463 LINE",
"352 500 LINE",
"225 500 LINE",
"129 500 OFFCURVE",
"121 432 OFFCURVE",
"121 382 CURVE",
"119 321 LINE",
"119 318 LINE",
"121 115 LINE",
"121 65 OFFCURVE",
"129 -3 OFFCURVE",
"225 -3 CURVE",
"352 -3 LINE",
"435 34 LINE",
"423 98 LINE",
"336 60 LINE",
"259 60 LINE",
"196 60 OFFCURVE",
"186 79 OFFCURVE",
"186 143 CURVE",
"186 354 LINE"
);
}
);
width = 600;
},
{
layerId = "97059F98-3B67-4574-BA6A-CF2BFE3FA469";
width = 600;
}
);
unicode = 0063;
},
{
glyphname = d;
lastChange = "2016-07-17 17:40:37 +0000";
layers = (
{
guideLines = (
{
angle = 102;
position = "{430, 126}";
},
{
position = "{221, 44}";
}
);
layerId = "B235F14D-3E21-48B2-BBEC-7C0B00999912";
paths = (
{
closed = 1;
nodes = (
"432 116 LINE",
"457 0 LINE",
"396 0 LINE",
"361 102 LINE",
"361 701 LINE",
"430 699 LINE"
);
},
{
closed = 1;
nodes = (
"39 427 OFFCURVE",
"129 505 OFFCURVE",
"246 505 CURVE",
"283 505 LINE",
"361 503 LINE",
"418 259 LINE",
"381 47 LINE",
"266 0 LINE",
"253 0 LINE",
"129 0 OFFCURVE",
"39 85 OFFCURVE",
"39 256 CURVE"
);
},
{
closed = 1;
nodes = (
"165 436 OFFCURVE",
"100 373 OFFCURVE",
"100 251 CURVE",
"100 120 OFFCURVE",
"177 66 OFFCURVE",
"251 66 CURVE",
"262 68 LINE",
"361 111 LINE",
"393 150 OFFCURVE",
"390 237 OFFCURVE",
"390 268 CURVE",
"361 438 LINE",
"276 438 LINE",
"243 436 LINE"
);
}
);
width = 476;
},
{
layerId = "97059F98-3B67-4574-BA6A-CF2BFE3FA469";
width = 600;
}
);
unicode = 0064;
},
{
glyphname = e;
lastChange = "2016-07-16 13:11:21 +0000";
layers = (
{
layerId = "97059F98-3B67-4574-BA6A-CF2BFE3FA469";
paths = (
{
closed = 1;
nodes = (
"223 107 LINE",
"128 107 OFFCURVE",
"126 110 OFFCURVE",
"126 206 CURVE",
"235 205 LINE",
"285 207 OFFCURVE",
"430 221 OFFCURVE",
"430 375 CURVE SMOOTH",
"430 466 OFFCURVE",
"350 512 OFFCURVE",
"242 512 CURVE SMOOTH",
"80 512 OFFCURVE",
"14 472 OFFCURVE",
"14 389 CURVE",
"16 182 LINE SMOOTH",
"17 33 OFFCURVE",
"98 -1 OFFCURVE",
"232 -1 CURVE SMOOTH",
"308 -1 LINE",
"391 44 LINE",
"379 148 LINE",
"292 107 LINE"
);
},
{
closed = 1;
nodes = (
"121 408 OFFCURVE",
"107 429 OFFCURVE",
"203 429 CURVE SMOOTH",
"275 429 OFFCURVE",
"295 421 OFFCURVE",
"295 370 CURVE SMOOTH",
"295 298 OFFCURVE",
"315 299 OFFCURVE",
"232 297 CURVE",
"121 297 LINE",
"121 383 LINE"
);
}
);
width = 600;
},
{
layerId = "B235F14D-3E21-48B2-BBEC-7C0B00999912";
paths = (
{
closed = 1;
nodes = (
"223 67 LINE",
"128 67 OFFCURVE",
"126 110 OFFCURVE",
"126 206 CURVE",
"235 205 LINE",
"285 207 OFFCURVE",
"400 221 OFFCURVE",
"400 375 CURVE SMOOTH",
"400 466 OFFCURVE",
"350 512 OFFCURVE",
"242 512 CURVE SMOOTH",
"150 512 OFFCURVE",
"54 472 OFFCURVE",
"54 389 CURVE",
"56 182 LINE SMOOTH",
"56 33 OFFCURVE",
"98 -1 OFFCURVE",
"232 -1 CURVE SMOOTH",
"308 -1 LINE",
"391 44 LINE",
"379 108 LINE",
"292 67 LINE"
);
},
{
closed = 1;
nodes = (
"121 408 OFFCURVE",
"147 449 OFFCURVE",
"243 449 CURVE SMOOTH",
"315 449 OFFCURVE",
"335 421 OFFCURVE",
"335 370 CURVE SMOOTH",
"335 298 OFFCURVE",
"315 269 OFFCURVE",
"232 267 CURVE",
"121 267 LINE",
"121 383 LINE"
);
}
);
width = 600;
visible = 1;
},
{
associatedMasterId = "B235F14D-3E21-48B2-BBEC-7C0B00999912";
layerId = "9905BCAF-9459-4E03-82F2-3C59B162472F";
name = "Intermediate {160, 100}";
paths = (
{
closed = 1;
nodes = (
"223 91 LINE",
"128 91 OFFCURVE",
"126 110 OFFCURVE",
"126 206 CURVE",
"235 205 LINE",
"285 207 OFFCURVE",
"418 221 OFFCURVE",
"418 375 CURVE SMOOTH",
"418 466 OFFCURVE",
"350 512 OFFCURVE",
"242 512 CURVE SMOOTH",
"108 512 OFFCURVE",
"30 472 OFFCURVE",
"30 389 CURVE",
"32 182 LINE SMOOTH",
"33 33 OFFCURVE",
"98 -1 OFFCURVE",
"232 -1 CURVE SMOOTH",
"308 -1 LINE",
"391 44 LINE",
"379 132 LINE",
"292 91 LINE"
);
},
{
closed = 1;
nodes = (
"121 408 OFFCURVE",
"123 437 OFFCURVE",
"219 437 CURVE SMOOTH",
"291 437 OFFCURVE",
"311 421 OFFCURVE",
"311 370 CURVE SMOOTH",
"311 298 OFFCURVE",
"315 287 OFFCURVE",
"232 285 CURVE",
"121 285 LINE",
"121 383 LINE"
);
}
);
width = 600;
visible = 1;
}
);
unicode = 0065;
},
{
glyphname = f;
lastChange = "2016-07-16 13:04:39 +0000";
layers = (
{
layerId = "B235F14D-3E21-48B2-BBEC-7C0B00999912";
paths = (
{
closed = 1;
nodes = (
"231 670 OFFCURVE",
"233 699 OFFCURVE",
"292 699 CURVE",
"417 700 LINE",
"417 650 LINE",
"302 632 LINE",
"302 583 LINE",
"302 1 LINE",
"233 1 LINE",
"231 611 LINE"
);
},
{
closed = 1;
nodes = (
"417 525 LINE",
"417 467 LINE",
"170 467 LINE",
"170 525 LINE"
);
}
);
width = 600;
},
{
layerId = "97059F98-3B67-4574-BA6A-CF2BFE3FA469";
width = 600;
}
);
unicode = 0066;
},
{
glyphname = g;
lastChange = "2016-07-16 13:04:39 +0000";
layers = (
{
layerId = "B235F14D-3E21-48B2-BBEC-7C0B00999912";
paths = (
{
closed = 1;
nodes = (
"47 427 OFFCURVE",
"117 505 OFFCURVE",
"234 505 CURVE",
"271 505 LINE",
"389 503 LINE",
"426 259 LINE",
"389 63 LINE",
"254 16 LINE",
"241 16 LINE",
"117 20 OFFCURVE",
"47 85 OFFCURVE",
"47 252 CURVE"
);
},
{
closed = 1;
nodes = (
"153 434 OFFCURVE",
"108 373 OFFCURVE",
"108 247 CURVE",
"108 120 OFFCURVE",
"165 86 OFFCURVE",
"239 82 CURVE",
"250 84 LINE",
"369 127 LINE",
"401 170 OFFCURVE",
"398 237 OFFCURVE",
"398 268 CURVE",
"369 436 LINE",
"264 436 LINE",
"231 434 LINE"
);
},
{
closed = 1;
nodes = (
"435 -2 LINE",
"435 -117 OFFCURVE",
"398 -194 OFFCURVE",
"246 -197 CURVE SMOOTH",
"114 -200 OFFCURVE",
"56 -157 OFFCURVE",
"56 -34 CURVE",
"120 -33 LINE",
"120 -91 OFFCURVE",
"129 -129 OFFCURVE",
"244 -129 CURVE",
"329 -129 OFFCURVE",
"370 -101 OFFCURVE",
"370 3 CURVE",
"370 503 LINE",
"435 503 LINE"
);
}
);
width = 600;
},
{
layerId = "97059F98-3B67-4574-BA6A-CF2BFE3FA469";
width = 600;
}
);
unicode = 0067;
},
{
glyphname = h;
lastChange = "2016-07-16 13:04:39 +0000";
layers = (
{
layerId = "B235F14D-3E21-48B2-BBEC-7C0B00999912";
paths = (
{
closed = 1;
nodes = (
"461 0 LINE",
"461 305 LINE",
"461 430 OFFCURVE",
"433 511 OFFCURVE",
"297 511 CURVE SMOOTH",
"207 511 OFFCURVE",
"150 456 OFFCURVE",
"95 424 CURVE",
"163 386 LINE",
"170 386 OFFCURVE",
"220 438 OFFCURVE",
"291 438 CURVE",
"384 438 OFFCURVE",
"384 385 OFFCURVE",
"387 302 CURVE",
"390 0 LINE"
);
},
{
closed = 1;
nodes = (
"96 700 LINE",
"94 0 LINE",
"162 0 LINE",
"167 700 LINE",
"99 700 LINE"
);
}
);
width = 600;
},
{
associatedMasterId = "B235F14D-3E21-48B2-BBEC-7C0B00999912";
layerId = "3440A78A-1177-473C-A8C4-2289E60041C6";
name = "Regular Jul 11 16, 05:43";
paths = (
{
closed = 1;
nodes = (
"96 700 LINE",
"94 0 LINE",
"162 0 LINE",
"167 700 LINE",
"99 700 LINE"
);
},
{
closed = 1;
nodes = (
"257 438 LINE",
"329 438 LINE",
"392 438 OFFCURVE",
"402 419 OFFCURVE",
"402 355 CURVE",
"402 -3 LINE",
"469 -3 LINE",
"469 0 LINE",
"467 383 LINE",
"467 433 OFFCURVE",
"459 501 OFFCURVE",
"363 501 CURVE",
"241 501 LINE",
"148 454 LINE",
"160 390 LINE"
);
}
);
width = 600;
visible = 1;
},
{
associatedMasterId = "B235F14D-3E21-48B2-BBEC-7C0B00999912";
layerId = "69E1359E-0D82-443B-B7D2-850361BE2C0B";
name = "Regular Jul 11 16, 05:43";
paths = (
{
closed = 1;
nodes = (
"96 700 LINE",
"94 0 LINE",
"162 0 LINE",
"167 700 LINE",
"99 700 LINE"
);
},
{
closed = 1;
nodes = (
"257 438 LINE",
"329 438 LINE",
"392 438 OFFCURVE",
"402 419 OFFCURVE",
"402 355 CURVE",
"402 -3 LINE",
"469 -3 LINE",
"469 0 LINE",
"467 383 LINE",
"467 433 OFFCURVE",
"459 501 OFFCURVE",
"363 501 CURVE",
"241 501 LINE",
"148 454 LINE",
"160 390 LINE"
);
}
);
width = 600;
},
{
associatedMasterId = "B235F14D-3E21-48B2-BBEC-7C0B00999912";
layerId = "F1D61AEA-DF5E-4FC0-B187-7770E166564D";
name = "Regular Jul 11 16, 05:43";
paths = (
{
closed = 1;
nodes = (
"96 700 LINE",
"94 0 LINE",
"162 0 LINE",
"167 700 LINE",
"99 700 LINE"
);
},
{
closed = 1;
nodes = (
"257 438 LINE",
"329 438 LINE",
"392 438 OFFCURVE",
"402 419 OFFCURVE",
"402 355 CURVE",
"402 -3 LINE",
"469 -3 LINE",
"469 0 LINE",
"467 383 LINE",
"467 433 OFFCURVE",
"459 501 OFFCURVE",
"363 501 CURVE",
"241 501 LINE",
"148 454 LINE",
"160 390 LINE"
);
}
);
width = 600;
},
{
layerId = "97059F98-3B67-4574-BA6A-CF2BFE3FA469";
width = 600;
}
);
unicode = 0068;
},
{
glyphname = i;
lastChange = "2016-07-16 13:04:39 +0000";
layers = (
{
guideLines = (
{
angle = -102;
position = "{68, 587}";
}
);
layerId = "B235F14D-3E21-48B2-BBEC-7C0B00999912";
paths = (
{
closed = 1;
nodes = (
"54 525 LINE",
"123 525 LINE",
"123 -1 LINE",
"54 -1 LINE"
);
},
{
closed = 1;
nodes = (
"54 607 LINE",
"125 607 LINE",
"133 681 LINE",
"70 691 LINE"
);
}
);
width = 183;
},
{
layerId = "97059F98-3B67-4574-BA6A-CF2BFE3FA469";
width = 600;
}
);
unicode = 0069;
},
{
glyphname = j;
lastChange = "2016-07-16 13:04:39 +0000";
layers = (
{
layerId = "B235F14D-3E21-48B2-BBEC-7C0B00999912";
paths = (
{
closed = 1;
nodes = (
"254 607 LINE",
"325 607 LINE",
"333 681 LINE",
"270 691 LINE"
);
},
{
closed = 1;
nodes = (
"317 -146 OFFCURVE",
"315 -175 OFFCURVE",
"256 -175 CURVE",
"151 -176 LINE",
"151 -126 LINE",
"241 -108 LINE",
"241 -59 LINE",
"246 500 LINE",
"315 500 LINE",
"317 -87 LINE"
);
}
);
width = 600;
},
{
layerId = "97059F98-3B67-4574-BA6A-CF2BFE3FA469";
width = 600;
}
);
unicode = 006A;
},
{
glyphname = k;
lastChange = "2016-07-16 13:04:39 +0000";
layers = (
{
guideLines = (
{
angle = 90;
position = "{422, 298}";
}
);
layerId = "B235F14D-3E21-48B2-BBEC-7C0B00999912";
paths = (
{
closed = 1;
nodes = (
"46 700 LINE",
"44 0 LINE",
"120 0 LINE",
"117 700 LINE",
"49 700 LINE"
);
},
{
closed = 1;
nodes = (
"147 231 LINE",
"422 500 LINE",
"329 500 LINE",
"98 271 LINE",
"65 231 LINE"
);
},
{
closed = 1;
nodes = (
"335 0 LINE",
"422 0 LINE",
"192 275 LINE",
"132 247 LINE"
);
}
);
width = 466;
},
{
layerId = "97059F98-3B67-4574-BA6A-CF2BFE3FA469";
width = 600;
}
);
unicode = 006B;
},
{
glyphname = l;
lastChange = "2016-07-16 13:04:39 +0000";
layers = (
{
guideLines = (
{
position = "{10, 90}";
}
);
layerId = "B235F14D-3E21-48B2-BBEC-7C0B00999912";
paths = (
{
closed = 1;
nodes = (
"3 700 LINE",
"72 700 LINE",
"77 118 LINE",
"77 69 LINE",
"167 51 LINE",
"167 1 LINE",
"62 2 LINE",
"3 2 OFFCURVE",
"1 31 OFFCURVE",
"1 90 CURVE"
);
}
);
width = 197;
},
{
associatedMasterId = "B235F14D-3E21-48B2-BBEC-7C0B00999912";
layerId = "C45B14C1-31E7-4BA7-B6C3-2BD414702F4B";
name = v2;
paths = (
{
closed = 1;
nodes = (
"-595 708 LINE",
"-595 708 LINE",
"-535 708 LINE",
"-530 176 LINE",
"-530 127 LINE",
"-501 8 LINE",
"-574 8 LINE",
"-597 132 LINE"
);
},
{
closed = 1;
nodes = (
"1001 5 LINE",
"1067 50 LINE",
"1091 7 LINE",
"1149 6 LINE",
"1125 124 LINE",
"1123 331 LINE SMOOTH",
"1122 480 OFFCURVE",
"1081 514 OFFCURVE",
"947 514 CURVE SMOOTH",
"851 514 OFFCURVE",
"789 491 OFFCURVE",
"789 372 CURVE",
"830 372 LINE",
"851 412 LINE",
"862 432 OFFCURVE",
"890 451 OFFCURVE",
"930 451 CURVE SMOOTH",
"1055 451 OFFCURVE",
"1053 419 OFFCURVE",
"1053 323 CURVE",
"1037 321 OFFCURVE",
"1022 323 OFFCURVE",
"1008 321 CURVE SMOOTH",
"868 301 OFFCURVE",
"779 292 OFFCURVE",
"779 138 CURVE SMOOTH",
"779 77 OFFCURVE",
"802 24 OFFCURVE",
"866 9 CURVE"
);
},
{
closed = 1;
nodes = (
"892 73 LINE SMOOTH",
"844 74 OFFCURVE",
"839 168 OFFCURVE",
"859 203 CURVE SMOOTH",
"878 236 OFFCURVE",
"910 240 OFFCURVE",
"947 248 CURVE SMOOTH",
"982 256 OFFCURVE",
"1025 257 OFFCURVE",
"1058 257 CURVE",
"1058 120 LINE",
"984 71 LINE"
);
}
);
width = 600;
},
{
associatedMasterId = "B235F14D-3E21-48B2-BBEC-7C0B00999912";
layerId = "09A3CAD6-B066-4482-AFE0-2E549AC9D60C";
name = v2;
paths = (
{
closed = 1;
nodes = (
"-595 708 LINE",
"-595 708 LINE",
"-535 708 LINE",
"-530 176 LINE",
"-530 127 LINE",
"-501 8 LINE",
"-574 8 LINE",
"-597 132 LINE"
);
},
{
closed = 1;
nodes = (
"1001 5 LINE",
"1067 50 LINE",
"1091 7 LINE",
"1149 6 LINE",
"1125 124 LINE",
"1123 331 LINE SMOOTH",
"1122 480 OFFCURVE",
"1081 514 OFFCURVE",
"947 514 CURVE SMOOTH",
"851 514 OFFCURVE",
"789 491 OFFCURVE",
"789 372 CURVE",
"830 372 LINE",
"851 412 LINE",
"862 432 OFFCURVE",
"890 451 OFFCURVE",
"930 451 CURVE SMOOTH",
"1055 451 OFFCURVE",
"1053 419 OFFCURVE",
"1053 323 CURVE",
"1037 321 OFFCURVE",
"1022 323 OFFCURVE",
"1008 321 CURVE SMOOTH",
"868 301 OFFCURVE",
"779 292 OFFCURVE",
"779 138 CURVE SMOOTH",
"779 77 OFFCURVE",
"802 24 OFFCURVE",
"866 9 CURVE"
);
},
{
closed = 1;
nodes = (
"892 73 LINE SMOOTH",
"844 74 OFFCURVE",
"839 168 OFFCURVE",
"859 203 CURVE SMOOTH",
"878 236 OFFCURVE",
"910 240 OFFCURVE",
"947 248 CURVE SMOOTH",
"982 256 OFFCURVE",
"1025 257 OFFCURVE",
"1058 257 CURVE",
"1058 120 LINE",
"984 71 LINE"
);
}
);
width = 600;
},
{
associatedMasterId = "B235F14D-3E21-48B2-BBEC-7C0B00999912";
layerId = "35F526A0-E57F-4101-A7A3-EDD910787995";
name = v2;
paths = (
{
closed = 1;
nodes = (
"-595 708 LINE",
"-595 708 LINE",
"-535 708 LINE",
"-530 176 LINE",
"-530 127 LINE",
"-501 8 LINE",
"-574 8 LINE",
"-597 132 LINE"
);
},
{
closed = 1;
nodes = (
"1001 5 LINE",
"1067 50 LINE",
"1091 7 LINE",
"1149 6 LINE",
"1125 124 LINE",
"1123 331 LINE SMOOTH",
"1122 480 OFFCURVE",
"1081 514 OFFCURVE",
"947 514 CURVE SMOOTH",
"851 514 OFFCURVE",
"789 491 OFFCURVE",
"789 372 CURVE",
"830 372 LINE",
"851 412 LINE",
"862 432 OFFCURVE",
"890 451 OFFCURVE",
"930 451 CURVE SMOOTH",
"1055 451 OFFCURVE",
"1053 419 OFFCURVE",
"1053 323 CURVE",
"1037 321 OFFCURVE",
"1022 323 OFFCURVE",
"1008 321 CURVE SMOOTH",
"868 301 OFFCURVE",
"779 292 OFFCURVE",
"779 138 CURVE SMOOTH",
"779 77 OFFCURVE",
"802 24 OFFCURVE",
"866 9 CURVE"
);
},
{
closed = 1;
nodes = (
"892 73 LINE SMOOTH",
"844 74 OFFCURVE",
"839 168 OFFCURVE",
"859 203 CURVE SMOOTH",
"878 236 OFFCURVE",
"910 240 OFFCURVE",
"947 248 CURVE SMOOTH",
"982 256 OFFCURVE",
"1025 257 OFFCURVE",
"1058 257 CURVE",
"1058 120 LINE",
"984 71 LINE"
);
}
);
width = 600;
},
{
layerId = "97059F98-3B67-4574-BA6A-CF2BFE3FA469";
width = 600;
}
);
unicode = 006C;
},
{
glyphname = m;
lastChange = "2016-07-16 13:04:39 +0000";
layers = (
{
layerId = "B235F14D-3E21-48B2-BBEC-7C0B00999912";
paths = (
{
closed = 1;
nodes = (
"596 0 LINE",
"596 305 LINE",
"596 430 OFFCURVE",
"565 511 OFFCURVE",
"437 511 CURVE SMOOTH",
"337 511 OFFCURVE",
"280 456 OFFCURVE",
"225 424 CURVE",
"303 386 LINE",
"314 386 OFFCURVE",
"364 438 OFFCURVE",
"431 438 CURVE",
"516 438 OFFCURVE",
"519 385 OFFCURVE",
"522 302 CURVE",
"525 0 LINE"
);
},
{
closed = 1;
nodes = (
"69 0 LINE",
"72 406 LINE",
"1 453 LINE",
"1 0 LINE"
);
},
{
closed = 1;
nodes = (
"322 6 LINE",
"317 396 LINE",
"279 437 OFFCURVE",
"260 509 OFFCURVE",
"164 509 CURVE",
"76 509 OFFCURVE",
"34 430 OFFCURVE",
"34 430 CURVE",
"72 336 LINE",
"72 389 OFFCURVE",
"107 434 OFFCURVE",
"163 434 CURVE",
"220 434 OFFCURVE",
"246 385 OFFCURVE",
"246 360 CURVE",
"253 6 LINE"
);
},
{
closed = 1;
nodes = (
"75 420 LINE",
"11 503 LINE",
"-47 503 LINE",
"8 368 LINE"
);
}
);
width = 610;
},
{
associatedMasterId = "B235F14D-3E21-48B2-BBEC-7C0B00999912";
layerId = "D11FA6A1-B1C5-49FD-ACF1-60839B765697";
name = "Regular Jul 4 16, 04:39";
paths = (
{
closed = 1;
nodes = (
"596 0 LINE",
"596 305 LINE",
"596 430 OFFCURVE",
"565 511 OFFCURVE",
"437 511 CURVE SMOOTH",
"363 511 OFFCURVE",
"312 480 OFFCURVE",
"268 452 CURVE SMOOTH",
"244 436 OFFCURVE",
"223 444 OFFCURVE",
"303 386 CURVE",
"314 386 OFFCURVE",
"364 438 OFFCURVE",
"431 438 CURVE",
"516 438 OFFCURVE",
"519 385 OFFCURVE",
"522 302 CURVE",
"525 0 LINE"
);
},
{
closed = 1;
nodes = (
"69 0 LINE",
"72 406 LINE",
"1 453 LINE",
"1 0 LINE"
);
},
{
closed = 1;
nodes = (
"75 420 LINE",
"11 503 LINE",
"-47 503 LINE",
"8 368 LINE"
);
},
{
closed = 1;
nodes = (
"331 0 LINE",
"331 305 LINE",
"331 430 OFFCURVE",
"300 511 OFFCURVE",
"172 511 CURVE SMOOTH",
"117 511 OFFCURVE",
"102 498 OFFCURVE",
"24 465 CURVE",
"38 386 LINE",
"49 386 OFFCURVE",
"99 438 OFFCURVE",
"166 438 CURVE",
"251 438 OFFCURVE",
"254 385 OFFCURVE",
"257 302 CURVE",
"260 0 LINE"
);
}
);
width = 636;
},
{
associatedMasterId = "B235F14D-3E21-48B2-BBEC-7C0B00999912";
layerId = "CD52DEAC-8BE8-4ED5-AE25-FF6425CE6058";
name = "Regular Jul 11 16, 05:39";
paths = (
{
closed = 1;
nodes = (
"356 10 LINE",
"354 383 LINE",
"354 433 OFFCURVE",
"346 501 OFFCURVE",
"250 501 CURVE",
"173 501 LINE",
"80 454 LINE",
"58 498 LINE",
"0 498 LINE",
"26 379 LINE",
"26 0 LINE",
"92 0 LINE",
"92 390 LINE",
"189 438 LINE",
"216 438 LINE",
"279 438 OFFCURVE",
"289 419 OFFCURVE",
"289 355 CURVE",
"289 7 LINE"
);
},
{
closed = 1;
nodes = (
"399 438 LINE",
"466 438 LINE",
"529 438 OFFCURVE",
"539 419 OFFCURVE",
"539 355 CURVE",
"539 -3 LINE",
"606 -3 LINE",
"606 0 LINE",
"604 383 LINE",
"604 433 OFFCURVE",
"596 501 OFFCURVE",
"500 501 CURVE",
"383 501 LINE",
"290 451 LINE",
"302 387 LINE"
);
}
);
width = 646;
visible = 1;
},
{
associatedMasterId = "B235F14D-3E21-48B2-BBEC-7C0B00999912";
layerId = "EFBC37EA-028A-4BDD-8A6D-735CADE65953";
name = "Regular Jul 4 16, 04:39";
paths = (
{
closed = 1;
nodes = (
"596 0 LINE",
"596 305 LINE",
"596 430 OFFCURVE",
"565 511 OFFCURVE",
"437 511 CURVE SMOOTH",
"363 511 OFFCURVE",
"312 480 OFFCURVE",
"268 452 CURVE SMOOTH",
"244 436 OFFCURVE",
"223 444 OFFCURVE",
"303 386 CURVE",
"314 386 OFFCURVE",
"364 438 OFFCURVE",
"431 438 CURVE",
"516 438 OFFCURVE",
"519 385 OFFCURVE",
"522 302 CURVE",
"525 0 LINE"
);
},
{
closed = 1;
nodes = (
"69 0 LINE",
"72 406 LINE",
"1 453 LINE",
"1 0 LINE"
);
},
{
closed = 1;
nodes = (
"75 420 LINE",
"11 503 LINE",
"-47 503 LINE",
"8 368 LINE"
);
},
{
closed = 1;
nodes = (
"331 0 LINE",
"331 305 LINE",
"331 430 OFFCURVE",
"300 511 OFFCURVE",
"172 511 CURVE SMOOTH",
"117 511 OFFCURVE",
"102 498 OFFCURVE",
"24 465 CURVE",
"38 386 LINE",
"49 386 OFFCURVE",
"99 438 OFFCURVE",
"166 438 CURVE",
"251 438 OFFCURVE",
"254 385 OFFCURVE",
"257 302 CURVE",
"260 0 LINE"
);
}
);
width = 636;
},
{
associatedMasterId = "B235F14D-3E21-48B2-BBEC-7C0B00999912";
layerId = "3E443C59-1BBE-4408-B772-903D2E88ABDC";
name = "Regular Jul 11 16, 05:39";
paths = (
{
closed = 1;
nodes = (
"356 10 LINE",
"354 383 LINE",
"354 433 OFFCURVE",
"346 501 OFFCURVE",
"250 501 CURVE",
"173 501 LINE",
"80 454 LINE",
"58 498 LINE",
"0 498 LINE",
"26 379 LINE",
"26 0 LINE",
"92 0 LINE",
"92 390 LINE",
"189 438 LINE",
"216 438 LINE",
"279 438 OFFCURVE",
"289 419 OFFCURVE",
"289 355 CURVE",
"289 7 LINE"
);
},
{
closed = 1;
nodes = (
"399 438 LINE",
"466 438 LINE",
"529 438 OFFCURVE",
"539 419 OFFCURVE",
"539 355 CURVE",
"539 -3 LINE",
"606 -3 LINE",
"606 0 LINE",
"604 383 LINE",
"604 433 OFFCURVE",
"596 501 OFFCURVE",
"500 501 CURVE",
"383 501 LINE",
"290 451 LINE",
"302 387 LINE"
);
}
);
width = 646;
},
{
associatedMasterId = "B235F14D-3E21-48B2-BBEC-7C0B00999912";
layerId = "806F1ABE-5E97-4494-A14F-E1D1522B03E8";
name = "Regular Jul 4 16, 04:39";
paths = (
{
closed = 1;
nodes = (
"596 0 LINE",
"596 305 LINE",
"596 430 OFFCURVE",
"565 511 OFFCURVE",
"437 511 CURVE SMOOTH",
"363 511 OFFCURVE",
"312 480 OFFCURVE",
"268 452 CURVE SMOOTH",
"244 436 OFFCURVE",
"223 444 OFFCURVE",
"303 386 CURVE",
"314 386 OFFCURVE",
"364 438 OFFCURVE",
"431 438 CURVE",
"516 438 OFFCURVE",
"519 385 OFFCURVE",
"522 302 CURVE",
"525 0 LINE"
);
},
{
closed = 1;
nodes = (
"69 0 LINE",
"72 406 LINE",
"1 453 LINE",
"1 0 LINE"
);
},
{
closed = 1;
nodes = (
"75 420 LINE",
"11 503 LINE",
"-47 503 LINE",
"8 368 LINE"
);
},
{
closed = 1;
nodes = (
"331 0 LINE",
"331 305 LINE",
"331 430 OFFCURVE",
"300 511 OFFCURVE",
"172 511 CURVE SMOOTH",
"117 511 OFFCURVE",
"102 498 OFFCURVE",
"24 465 CURVE",
"38 386 LINE",
"49 386 OFFCURVE",
"99 438 OFFCURVE",
"166 438 CURVE",
"251 438 OFFCURVE",
"254 385 OFFCURVE",
"257 302 CURVE",
"260 0 LINE"
);
}
);
width = 636;
},
{
associatedMasterId = "B235F14D-3E21-48B2-BBEC-7C0B00999912";
layerId = "352A31F3-7151-4A2A-B94B-07F027527B8F";
name = "Regular Jul 11 16, 05:39";
paths = (
{
closed = 1;
nodes = (
"356 10 LINE",
"354 383 LINE",
"354 433 OFFCURVE",
"346 501 OFFCURVE",
"250 501 CURVE",
"173 501 LINE",
"80 454 LINE",
"58 498 LINE",
"0 498 LINE",
"26 379 LINE",
"26 0 LINE",
"92 0 LINE",
"92 390 LINE",
"189 438 LINE",
"216 438 LINE",
"279 438 OFFCURVE",
"289 419 OFFCURVE",
"289 355 CURVE",
"289 7 LINE"
);
},
{
closed = 1;
nodes = (
"399 438 LINE",
"466 438 LINE",
"529 438 OFFCURVE",
"539 419 OFFCURVE",
"539 355 CURVE",
"539 -3 LINE",
"606 -3 LINE",
"606 0 LINE",
"604 383 LINE",
"604 433 OFFCURVE",
"596 501 OFFCURVE",
"500 501 CURVE",
"383 501 LINE",
"290 451 LINE",
"302 387 LINE"
);
}
);
width = 646;
},
{
layerId = "97059F98-3B67-4574-BA6A-CF2BFE3FA469";
width = 600;
}
);
unicode = 006D;
},
{
glyphname = n;
lastChange = "2016-07-16 13:04:39 +0000";
layers = (
{
layerId = "B235F14D-3E21-48B2-BBEC-7C0B00999912";
paths = (
{
closed = 1;
nodes = (
"421 0 LINE",
"419 383 LINE",
"419 433 OFFCURVE",
"411 501 OFFCURVE",
"315 501 CURVE",
"193 501 LINE",
"100 454 LINE",
"78 498 LINE",
"20 498 LINE",
"46 379 LINE",
"46 0 LINE",
"112 0 LINE",
"112 390 LINE",
"209 438 LINE",
"281 438 LINE",
"344 438 OFFCURVE",
"354 419 OFFCURVE",
"354 355 CURVE",
"354 -3 LINE",
"421 -3 LINE"
);
}
);
width = 600;
},
{
layerId = "97059F98-3B67-4574-BA6A-CF2BFE3FA469";
width = 600;
}
);
unicode = 006E;
},
{
glyphname = o;
lastChange = "2016-07-16 13:04:39 +0000";
layers = (
{
layerId = "B235F14D-3E21-48B2-BBEC-7C0B00999912";
paths = (
{
closed = 1;
nodes = (
"512 -10 OFFCURVE",
"512 111 OFFCURVE",
"512 250 CURVE SMOOTH",
"512 389 OFFCURVE",
"512 520 OFFCURVE",
"291 520 CURVE SMOOTH",
"81 520 OFFCURVE",
"81 389 OFFCURVE",
"81 250 CURVE SMOOTH",
"81 111 OFFCURVE",
"81 -10 OFFCURVE",
"296 -10 CURVE SMOOTH"
);
},
{
closed = 1;
nodes = (
"137 56 OFFCURVE",
"144 147 OFFCURVE",
"144 251 CURVE SMOOTH",
"144 356 OFFCURVE",
"137 454 OFFCURVE",
"292 454 CURVE SMOOTH",
"456 454 OFFCURVE",
"449 356 OFFCURVE",
"449 251 CURVE SMOOTH",
"449 147 OFFCURVE",
"456 56 OFFCURVE",
"296 56 CURVE SMOOTH"
);
}
);
width = 600;
},
{
layerId = "97059F98-3B67-4574-BA6A-CF2BFE3FA469";
width = 600;
}
);
unicode = 006F;
},
{
glyphname = p;
lastChange = "2016-07-16 13:04:39 +0000";
layers = (
{
layerId = "B235F14D-3E21-48B2-BBEC-7C0B00999912";
paths = (
{
closed = 1;
nodes = (
"94 385 LINE",
"69 501 LINE",
"130 501 LINE",
"165 399 LINE",
"165 -200 LINE",
"96 -198 LINE"
);
},
{
closed = 1;
nodes = (
"487 94 OFFCURVE",
"417 16 OFFCURVE",
"300 16 CURVE",
"263 16 LINE",
"165 18 LINE",
"108 242 LINE",
"145 454 LINE",
"280 501 LINE",
"293 501 LINE",
"417 501 OFFCURVE",
"487 416 OFFCURVE",
"487 245 CURVE"
);
},
{
closed = 1;
nodes = (
"381 87 OFFCURVE",
"416 148 OFFCURVE",
"416 250 CURVE",
"416 381 OFFCURVE",
"369 435 OFFCURVE",
"295 435 CURVE",
"284 433 LINE",
"165 390 LINE",
"133 351 OFFCURVE",
"136 264 OFFCURVE",
"136 233 CURVE",
"165 85 LINE",
"270 85 LINE",
"303 87 LINE"
);
}
);
width = 600;
},
{
layerId = "97059F98-3B67-4574-BA6A-CF2BFE3FA469";
width = 600;
}
);
unicode = 0070;
},
{
glyphname = q;
lastChange = "2016-07-17 17:46:11 +0000";
layers = (
{
layerId = "B235F14D-3E21-48B2-BBEC-7C0B00999912";
paths = (
{
closed = 1;
nodes = (
"390 -200 LINE",
"390 399 LINE",
"425 501 LINE",
"486 501 LINE",
"461 385 LINE",
"459 -198 LINE"
);
},
{
closed = 1;
nodes = (
"68 416 OFFCURVE",
"138 501 OFFCURVE",
"262 501 CURVE",
"275 501 LINE",
"410 454 LINE",
"447 242 LINE",
"390 18 LINE",
"292 16 LINE",
"255 16 LINE",
"138 16 OFFCURVE",
"68 94 OFFCURVE",
"68 245 CURVE"
);
},
{
closed = 1;
nodes = (
"285 85 LINE",
"390 85 LINE",
"419 233 LINE",
"419 264 OFFCURVE",
"422 351 OFFCURVE",
"390 390 CURVE",
"271 433 LINE",
"260 435 LINE",
"186 435 OFFCURVE",
"139 381 OFFCURVE",
"139 250 CURVE",
"139 148 OFFCURVE",
"174 87 OFFCURVE",
"252 87 CURVE"
);
}
);
width = 570;
},
{
layerId = "97059F98-3B67-4574-BA6A-CF2BFE3FA469";
width = 600;
}
);
unicode = 0071;
},
{
glyphname = r;
lastChange = "2016-07-18 03:05:59 +0000";
layers = (
{
associatedMasterId = "B235F14D-3E21-48B2-BBEC-7C0B00999912";
layerId = "E56CBF3F-9E7C-440A-8419-0E639A9CFFE3";
name = "Regular Jul 4 16, 05:20";
paths = (
{
closed = 1;
nodes = (
"37 0 LINE",
"35 500 LINE",
"104 500 LINE",
"105 1 LINE",
"45 1 LINE"
);
},
{
closed = 1;
nodes = (
"333 500 LINE",
"333 436 LINE",
"222 434 LINE",
"83 345 LINE",
"83 423 LINE",
"211 498 LINE"
);
}
);
width = 388;
},
{
associatedMasterId = "B235F14D-3E21-48B2-BBEC-7C0B00999912";
layerId = "04990AB0-E7E0-4AA5-B1DA-4E2B467C87EE";
name = "Regular Jul 4 16, 05:20";
paths = (
{
closed = 1;
nodes = (
"37 0 LINE",
"35 500 LINE",
"104 500 LINE",
"105 1 LINE",
"45 1 LINE"
);
},
{
closed = 1;
nodes = (
"333 500 LINE",
"333 436 LINE",
"222 434 LINE",
"83 345 LINE",
"83 423 LINE",
"211 498 LINE"
);
}
);
width = 388;
},
{
layerId = "97059F98-3B67-4574-BA6A-CF2BFE3FA469";
width = 600;
},
{
associatedMasterId = "B235F14D-3E21-48B2-BBEC-7C0B00999912";
layerId = "25142287-AECE-4E51-AF37-933360B5F6FA";
name = "Regular Jul 18 16, 05:04";
paths = (
{
closed = 1;
nodes = (
"37 0 LINE",
"35 500 LINE",
"104 500 LINE",
"105 1 LINE",
"45 1 LINE"
);
},
{
closed = 1;
nodes = (
"83 378 LINE",
"83 449 LINE",
"151 479 LINE",
"242 521 OFFCURVE",
"268 500 OFFCURVE",
"354 500 CURVE",
"351 442 LINE",
"259 444 LINE"
);
}
);
width = 406;
},
{
layerId = "B235F14D-3E21-48B2-BBEC-7C0B00999912";
paths = (
{
closed = 1;
nodes = (
"37 0 LINE",
"35 500 LINE",
"104 500 LINE",
"105 1 LINE",
"45 1 LINE"
);
},
{
closed = 1;
nodes = (
"345 499 LINE",
"333 437 LINE",
"222 435 LINE",
"83 344 LINE",
"83 422 LINE",
"211 497 LINE"
);
}
);
width = 388;
visible = 1;
}
);
unicode = 0072;
},
{
glyphname = s;
lastChange = "2016-07-19 03:41:41 +0000";
layers = (
{
associatedMasterId = "B235F14D-3E21-48B2-BBEC-7C0B00999912";
guideLines = (
{
angle = 90;
position = "{435, 463}";
},
{
angle = 90;
position = "{366, 283}";
},
{
angle = 90;
position = "{235, 500}";
},
{
angle = 90;
position = "{164, 319}";
}
);
layerId = "80C5186C-C708-4C3A-B5A4-5BA619CF363F";
name = "Regular Jul 12 16, 06:00";
paths = (
{
closed = 1;
nodes = (
"335 435 OFFCURVE",
"350 435 OFFCURVE",
"376 435 CURVE",
"463 399 LINE",
"475 463 LINE",
"392 500 LINE",
"343 500 OFFCURVE",
"274 500 OFFCURVE",
"225 500 CURVE",
"166 500 OFFCURVE",
"138 484 OFFCURVE",
"138 388 CURVE",
"138 301 OFFCURVE",
"138 282 OFFCURVE",
"192 261 CURVE SMOOTH",
"273 230 OFFCURVE",
"322 211 OFFCURVE",
"371 190 CURVE",
"386 182 OFFCURVE",
"387 180 OFFCURVE",
"386 123 CURVE SMOOTH",
"385 66 OFFCURVE",
"383 63 OFFCURVE",
"350 63 CURVE",
"301 63 OFFCURVE",
"252 63 OFFCURVE",
"223 63 CURVE",
"136 101 LINE",
"124 37 LINE",
"207 0 LINE",
"375 0 LINE",
"431 0 OFFCURVE",
"455 22 OFFCURVE",
"455 117 CURVE",
"455 226 OFFCURVE",
"454 226 OFFCURVE",
"384 257 CURVE",
"332 278 OFFCURVE",
"281 298 OFFCURVE",
"229 317 CURVE",
"208 326 OFFCURVE",
"207 329 OFFCURVE",
"207 378 CURVE SMOOTH",
"207 431 OFFCURVE",
"207 435 OFFCURVE",
"236 435 CURVE"
);
}
);
width = 600;
visible = 1;
},
{
anchors = (
{
name = top;
position = "{113, 497}";
}
);
layerId = "B235F14D-3E21-48B2-BBEC-7C0B00999912";
paths = (
{
closed = 1;
nodes = (
"196 418 OFFCURVE",
"236 437 OFFCURVE",
"269 437 CURVE",
"366 437 LINE",
"453 399 LINE",
"465 463 LINE",
"382 500 LINE",
"235 500 LINE",
"139 500 OFFCURVE",
"131 432 OFFCURVE",
"131 382 CURVE",
"131 284 LINE",
"380 176 LINE",
"380 86 OFFCURVE",
"370 67 OFFCURVE",
"307 67 CURVE",
"210 67 LINE",
"123 105 LINE",
"111 41 LINE",
"194 4 LINE",
"341 4 LINE",
"437 4 OFFCURVE",
"445 72 OFFCURVE",
"445 122 CURVE",
"445 222 LINE",
"196 325 LINE"
);
}
);
width = 600;
},
{
associatedMasterId = "B235F14D-3E21-48B2-BBEC-7C0B00999912";
layerId = "EB84E415-42A0-4B7A-8F48-CB0704DFF1F9";
name = "Regular Jul 12 16, 06:00";
paths = (
{
closed = 1;
nodes = (
"186 418 OFFCURVE",
"196 437 OFFCURVE",
"259 437 CURVE",
"336 437 LINE",
"423 399 LINE",
"435 463 LINE",
"352 500 LINE",
"225 500 LINE",
"134 500 OFFCURVE",
"121 442 OFFCURVE",
"121 371 CURVE",
"121 272 OFFCURVE",
"370 179 OFFCURVE",
"370 130 CURVE",
"370 86 OFFCURVE",
"360 67 OFFCURVE",
"297 67 CURVE",
"220 67 LINE",
"133 105 LINE",
"121 41 LINE",
"204 4 LINE",
"331 4 LINE",
"426 4 OFFCURVE",
"435 57 OFFCURVE",
"435 156 CURVE",
"435 208 OFFCURVE",
"186 298 OFFCURVE",
"186 371 CURVE"
);
}
);
width = 600;
},
{
associatedMasterId = "B235F14D-3E21-48B2-BBEC-7C0B00999912";
layerId = "5DD14EF4-C0E9-4783-BB96-36E54856209C";
name = "Regular Jul 12 16, 06:00";
paths = (
{
closed = 1;
nodes = (
"186 418 OFFCURVE",
"196 437 OFFCURVE",
"259 437 CURVE",
"336 437 LINE",
"423 399 LINE",
"435 463 LINE",
"352 500 LINE",
"225 500 LINE",
"134 500 OFFCURVE",
"121 442 OFFCURVE",
"121 371 CURVE",
"121 272 OFFCURVE",
"370 179 OFFCURVE",
"370 130 CURVE",
"370 86 OFFCURVE",
"360 67 OFFCURVE",
"297 67 CURVE",
"220 67 LINE",
"133 105 LINE",
"121 41 LINE",
"204 4 LINE",
"331 4 LINE",
"426 4 OFFCURVE",
"435 57 OFFCURVE",
"435 156 CURVE",
"435 208 OFFCURVE",
"186 298 OFFCURVE",
"186 371 CURVE"
);
}
);
width = 600;
},
{
layerId = "97059F98-3B67-4574-BA6A-CF2BFE3FA469";
width = 600;
}
);
unicode = 0073;
},
{
glyphname = t;
lastChange = "2016-07-16 13:04:39 +0000";
layers = (
{
layerId = "B235F14D-3E21-48B2-BBEC-7C0B00999912";
paths = (
{
closed = 1;
nodes = (
"91 700 LINE",
"159 700 LINE",
"160 0 LINE",
"92 2 LINE"
);
},
{
closed = 1;
nodes = (
"297 595 LINE",
"297 537 LINE",
"30 537 LINE",
"30 595 LINE"
);
}
);
width = 337;
},
{
layerId = "97059F98-3B67-4574-BA6A-CF2BFE3FA469";
width = 600;
}
);
unicode = 0074;
},
{
glyphname = u;
lastChange = "2016-07-16 13:04:39 +0000";
layers = (
{
guideLines = (
{
position = "{202, 104}";
},
{
position = "{260, 44}";
},
{
angle = 102;
position = "{410, 119}";
}
);
layerId = "B235F14D-3E21-48B2-BBEC-7C0B00999912";
paths = (
{
closed = 1;
nodes = (
"20 498 LINE",
"22 115 LINE",
"22 65 OFFCURVE",
"30 -3 OFFCURVE",
"126 -3 CURVE",
"243 -3 LINE",
"336 44 LINE",
"358 0 LINE",
"416 0 LINE",
"390 119 LINE",
"390 498 LINE",
"324 498 LINE",
"324 108 LINE",
"227 60 LINE",
"160 60 LINE",
"97 60 OFFCURVE",
"87 79 OFFCURVE",
"87 143 CURVE",
"87 501 LINE",
"20 501 LINE"
);
}
);
width = 446;
},
{
layerId = "97059F98-3B67-4574-BA6A-CF2BFE3FA469";
width = 600;
}
);
unicode = 0075;
},
{
glyphname = v;
lastChange = "2016-07-16 13:04:39 +0000";
layers = (
{
layerId = "B235F14D-3E21-48B2-BBEC-7C0B00999912";
paths = (
{
closed = 1;
nodes = (
"266 0 LINE",
"332 -1 LINE",
"146 500 LINE",
"77 500 LINE"
);
},
{
closed = 1;
nodes = (
"452 500 LINE",
"266 -1 LINE",
"332 0 LINE",
"521 500 LINE"
);
}
);
width = 600;
},
{
layerId = "97059F98-3B67-4574-BA6A-CF2BFE3FA469";
width = 600;
}
);
unicode = 0076;
},
{
glyphname = w;
lastChange = "2016-12-30 12:08:27 +0000";
layers = (
{
layerId = "B235F14D-3E21-48B2-BBEC-7C0B00999912";
paths = (
{
closed = 1;
nodes = (
"119 143 LINE",
"119 79 OFFCURVE",
"269 60 OFFCURVE",
"206 60 CURVE",
"179 60 LINE",
"96 108 LINE",
"96 498 LINE",
"30 498 LINE",
"30 119 LINE",
"84 44 LINE",
"163 -3 LINE",
"240 -3 LINE",
"336 -3 OFFCURVE",
"344 65 OFFCURVE",
"344 115 CURVE",
"346 478 LINE",
"279 481 LINE"
);
},
{
closed = 1;
nodes = (
"280 47 LINE",
"373 -3 LINE",
"490 -3 LINE",
"586 -3 OFFCURVE",
"594 65 OFFCURVE",
"594 115 CURVE",
"596 498 LINE",
"596 501 LINE",
"529 501 LINE",
"529 143 LINE",
"529 79 OFFCURVE",
"519 60 OFFCURVE",
"456 60 CURVE",
"389 60 LINE",
"292 111 LINE"
);
}
);
width = 600;
},
{
layerId = "97059F98-3B67-4574-BA6A-CF2BFE3FA469";
width = 600;
}
);
unicode = 0077;
},
{
glyphname = x;
lastChange = "2016-07-16 13:04:39 +0000";
layers = (
{
layerId = "B235F14D-3E21-48B2-BBEC-7C0B00999912";
paths = (
{
closed = 1;
nodes = (
"286 210 LINE",
"427 0 LINE",
"499 -1 LINE",
"319 271 LINE"
);
},
{
closed = 1;
nodes = (
"424 500 LINE",
"94 -1 LINE",
"166 0 LINE",
"495 500 LINE"
);
},
{
closed = 1;
nodes = (
"282 215 LINE",
"314 276 LINE",
"167 500 LINE",
"96 500 LINE"
);
}
);
width = 600;
},
{
layerId = "97059F98-3B67-4574-BA6A-CF2BFE3FA469";
width = 600;
}
);
unicode = 0078;
},
{
glyphname = y;
lastChange = "2016-07-16 13:04:39 +0000";
layers = (
{
layerId = "B235F14D-3E21-48B2-BBEC-7C0B00999912";
paths = (
{
closed = 1;
nodes = (
"332 0 LINE",
"521 500 LINE",
"452 500 LINE",
"266 0 LINE"
);
},
{
closed = 1;
nodes = (
"196 -223 OFFCURVE",
"267 -199 OFFCURVE",
"342 26 CURVE",
"280 37 LINE",
"223 -115 OFFCURVE",
"203 -150 OFFCURVE",
"94 -115 CURVE",
"71 -179 LINE"
);
},
{
closed = 1;
nodes = (
"333 40 LINE",
"147 500 LINE",
"78 500 LINE",
"267 40 LINE"
);
}
);
width = 600;
},
{
layerId = "97059F98-3B67-4574-BA6A-CF2BFE3FA469";
width = 600;
}
);
unicode = 0079;
},
{
glyphname = z;
lastChange = "2016-07-16 13:04:39 +0000";
layers = (
{
layerId = "B235F14D-3E21-48B2-BBEC-7C0B00999912";
paths = (
{
closed = 1;
nodes = (
"131 168 LINE",
"131 12 LINE",
"143 0 LINE",
"235 0 LINE",
"382 0 LINE",
"465 37 LINE",
"453 101 LINE",
"366 63 LINE",
"196 63 LINE",
"196 132 LINE",
"445 324 LINE",
"445 489 LINE",
"433 501 LINE",
"341 500 LINE",
"194 500 LINE",
"111 463 LINE",
"123 399 LINE",
"210 437 LINE",
"380 437 LINE",
"380 355 LINE"
);
}
);
width = 600;
},
{
layerId = "97059F98-3B67-4574-BA6A-CF2BFE3FA469";
width = 600;
}
);
unicode = 007A;
},
{
glyphname = acutecomb;
lastChange = "2016-07-16 13:34:10 +0000";
layers = (
{
anchors = (
{
name = _top;
position = "{117, 490}";
},
{
name = top;
position = "{302, 675}";
}
);
layerId = "B235F14D-3E21-48B2-BBEC-7C0B00999912";
paths = (
{
closed = 1;
nodes = (
"289 532 LINE",
"382 663 LINE",
"343 675 LINE",
"221 552 LINE"
);
}
);
width = 600;
},
{
layerId = "97059F98-3B67-4574-BA6A-CF2BFE3FA469";
width = 600;
}
);
unicode = 0301;
},
